<?xml version="1.0" encoding="utf-8"?>
<!-- Generator: Adobe Illustrator 24.2.0, SVG Export Plug-In . SVG Version: 6.00 Build 0)  -->
<svg version="1.1" id="レイヤー_1-543623142" xmlns="http://www.w3.org/2000/svg" xmlns:xlink="http://www.w3.org/1999/xlink"
	 x="0px" y="0px" viewBox="0 0 516 173.4" style="enable-background:new 0 0 516 173.4;" xml:space="preserve">
<style type="text/css">
	.st0{fill:#0A3869;}
</style>
<g>
	<g>
		<g>
			<path class="st0" d="M120.5,80l-4.8,8.9l15.9,26.1c0.4,0.6,0.3,1.3-0.1,1.8c-0.3,0.4-0.8,0.6-1.2,0.6c-0.2,0-0.4,0-0.6-0.1
				l-12.4-4.8l-15.6,4.2l52,20c0.2,0.1,0.4,0.1,0.6,0.1c0.5,0,0.9-0.2,1.2-0.6c0.4-0.5,0.5-1.3,0.1-1.9L120.5,80z"/>
			<path class="st0" d="M73.7,8c-0.3-0.5-0.8-0.7-1.3-0.7c-0.1,0-0.3,0-0.4,0.1c-0.7,0.2-1.1,0.8-1.2,1.5L67.9,65L13.4,79.6
				c-0.7,0.2-1.1,0.8-1.2,1.5c0,0.7,0.4,1.3,1,1.6l53.4,20.5l-2.7,30.3l10.5-27.3l0,0l3.4-8.9l-33.8-13c-0.6-0.2-1.1-0.9-1-1.6
				c0-0.7,0.5-1.3,1.2-1.5L77,72.5l1.8-33.8c0-0.7,0.5-1.3,1.2-1.5c0.1,0,0.3,0,0.4,0c0.5,0,1,0.3,1.3,0.7l12,18.5l4.2-11L73.7,8z"
				/>
			<path class="st0" d="M162,40.3c-0.2-0.3-0.5-0.4-0.9-0.3l-10.9,2.9l-45.8,12.3L62.6,164l31.2-54.9l18-5.1l-9.8-9.8l17.9-33
				c0.1-0.2,0.3-0.3,0.5-0.4l11.5-3.1c0.3-0.1,0.7,0,0.9,0.3c0.2,0.3,0.2,0.6,0,0.9l-7.8,14.4l1.5-0.4l35.4-31.7
				C162.1,41,162.2,40.6,162,40.3z"/>
		</g>
		<g>
			<path class="st0" d="M190.1,108.3h-10.4v-39h23.1v8.5h-12.7v7.4h11.7v8.5h-11.7V108.3z"/>
			<path class="st0" d="M252.3,88.8c0,6.6-1.6,11.6-4.8,15c-3.2,3.4-7.9,5.1-14.1,5.1c-6.1,0-10.8-1.7-14.1-5.2
				c-3.3-3.4-4.9-8.4-4.9-15c0-6.5,1.6-11.5,4.9-14.9s8-5.1,14.2-5.1c6.2,0,10.9,1.7,14.1,5.1C250.7,77.2,252.3,82.2,252.3,88.8z
				 M225.4,88.8c0,7.5,2.6,11.3,7.9,11.3c2.7,0,4.6-0.9,5.9-2.7c1.3-1.8,1.9-4.7,1.9-8.6c0-3.9-0.7-6.8-2-8.6s-3.3-2.8-5.9-2.8
				C228.1,77.4,225.4,81.2,225.4,88.8z"/>
			<path class="st0" d="M276.4,94.1v14.2h-10.5v-39h12.8c10.6,0,15.9,3.8,15.9,11.5c0,4.5-2.2,8-6.6,10.5l11.4,17h-12l-8.3-14.2
				H276.4z M276.4,86.2h2c3.7,0,5.5-1.6,5.5-4.9c0-2.7-1.8-4-5.4-4h-2.1V86.2z"/>
			<path class="st0" d="M326.6,108.3h-10.5V78h-9.5v-8.6h29.6V78h-9.5L326.6,108.3L326.6,108.3z"/>
			<path class="st0" d="M381.4,69.3v23.5c0,5.1-1.4,9.1-4.3,11.9c-2.9,2.8-7.1,4.2-12.5,4.2c-5.3,0-9.4-1.4-12.3-4.1
				s-4.3-6.6-4.3-11.7V69.3h10.6v22.9c0,2.8,0.5,4.8,1.5,6c1,1.2,2.6,1.9,4.6,1.9c2.2,0,3.7-0.6,4.7-1.9c1-1.2,1.5-3.3,1.5-6.1V69.3
				H381.4z"/>
			<path class="st0" d="M433.3,108.3h-13.8l-14.3-27.5H405c0.3,4.3,0.5,7.6,0.5,9.9v17.6h-9.3v-39H410l14.2,27.1h0.2
				c-0.2-3.9-0.4-7.1-0.4-9.5V69.3h9.4L433.3,108.3L433.3,108.3z"/>
			<path class="st0" d="M472.3,108.3l-1.9-7.3h-12.7l-2,7.3h-11.6l12.7-39.2h14.1l12.9,39.2C483.8,108.3,472.3,108.3,472.3,108.3z
				 M468.2,92.4l-1.7-6.4c-0.4-1.4-0.9-3.3-1.4-5.5s-0.9-3.9-1.1-4.9c-0.2,0.9-0.5,2.4-0.9,4.5s-1.5,6.2-3.1,12.3L468.2,92.4
				L468.2,92.4z"/>
		</g>
	</g>
</g>
</svg>
