<svg xmlns="http://www.w3.org/2000/svg" width="279.661" height="63.558" viewBox="0 0 279.661 63.558">
  <g id="ベクトルスマートオブジェクト" transform="translate(-710.492 -599.329)">
    <g id="Group_9" data-name="Group 9" transform="translate(-11 15)">
      <path id="Path_3" data-name="Path 3" d="M882.611,607.152H871.673v1.171c3.422,0,3.972.74,3.972,5.12v7.9c0,4.378-.55,5.181-3.972,5.181-2.626-.371-4.4-1.789-6.843-4.5l-2.811-3.083c3.789-.68,5.805-3.084,5.805-5.8,0-3.391-2.873-5.981-8.25-5.981H848.82v1.171c3.422,0,3.972.74,3.972,5.12v7.9c0,4.378-.55,5.181-3.972,5.181v1.171h12.16v-1.171c-3.422,0-3.972-.8-3.972-5.181v-2.22h1.039l6.782,8.572h17.782c8.738,0,12.527-4.686,12.527-10.3S891.349,607.152,882.611,607.152Zm-25.6,10.052V609h2.506c2.75,0,3.972,1.911,3.972,4.131a3.748,3.748,0,0,1-3.972,4.071Zm25.787,8.575h-.428c-2.2,0-2.5-.555-2.5-3.392V609h2.932c6.354,0,7.516,4.686,7.516,8.326C890.31,621.092,889.149,625.779,882.794,625.779Z"/>
      <path id="Path_4" data-name="Path 4" d="M725.967,616.107a27.287,27.287,0,0,0,15.223,24.535l-12.883-35.631A27.376,27.376,0,0,0,725.967,616.107Zm45.242-1.374a14.443,14.443,0,0,0-2.226-7.519c-1.368-2.247-2.653-4.148-2.653-6.4a4.7,4.7,0,0,1,4.536-4.838c.119,0,.233.014.349.021a26.844,26.844,0,0,0-40.805,5.131c.634.019,1.232.031,1.739.031,2.825,0,7.2-.346,7.2-.346a1.127,1.127,0,0,1,.173,2.247s-1.463.173-3.091.259l9.836,29.531,5.912-17.893-4.209-11.638c-1.455-.086-2.832-.259-2.832-.259a1.127,1.127,0,0,1,.172-2.247s4.458.346,7.113.346c2.825,0,7.2-.346,7.2-.346a1.127,1.127,0,0,1,.172,2.247s-1.465.173-3.091.259l9.762,29.306,2.694-9.086A25.583,25.583,0,0,0,771.209,614.733Zm-17.758,3.759-8.105,23.768a26.77,26.77,0,0,0,16.6-.434,2.528,2.528,0,0,1-.194-.376Zm23.226-15.462a21.061,21.061,0,0,1,.182,2.8,25.962,25.962,0,0,1-2.053,9.764l-8.25,24.076a27.424,27.424,0,0,0,10.122-36.643Z"/>
      <g id="Group_7" data-name="Group 7">
        <path id="Path_5" data-name="Path 5" d="M721.492,616.107a31.487,31.487,0,1,0,31.484-31.778A31.669,31.669,0,0,0,721.492,616.107Zm1.444,0a30.042,30.042,0,1,1,30.041,30.323A30.216,30.216,0,0,1,722.935,616.107Z"/>
      </g>
      <g id="Group_8" data-name="Group 8">
        <rect id="Rectangle_7" data-name="Rectangle 7" width="209.187" height="1.457" transform="translate(791.965 632.507)"/>
      </g>
      <path id="Path_6" data-name="Path 6" d="M814.784,619.487,819,606.9c1.222-3.638.672-4.687-3.239-4.687v-1.234h11.489v1.234c-3.85,0-4.767.926-6.295,5.427l-6.967,21.094H813.2l-6.234-19.305-6.354,19.305h-.794l-6.782-21.094c-1.466-4.5-2.445-5.427-5.988-5.427v-1.234h13.565v1.234c-3.6,0-4.583.863-3.3,4.688l4.094,12.583,6.173-18.5h1.16Z"/>
      <path id="Path_7" data-name="Path 7" d="M835.56,628.493c-6.721,0-12.221-5-12.221-11.1,0-6.044,5.5-11.041,12.221-11.041s12.222,5,12.222,11.041C847.782,623.5,842.281,628.493,835.56,628.493Zm0-20.23c-5.621,0-7.577,5.118-7.577,9.127,0,4.071,1.956,9.129,7.577,9.129,5.683,0,7.639-5.058,7.639-9.129C843.2,613.381,841.243,608.263,835.56,608.263Z"/>
      <path id="Path_8" data-name="Path 8" d="M910.23,626.458v1.232H896.237v-1.232c4.094,0,4.827-1.049,4.827-7.218v-9.867c0-6.169-.733-7.155-4.827-7.155v-1.234h12.649c6.293,0,9.777,3.269,9.777,7.649,0,4.255-3.484,7.586-9.777,7.586H905.4v3.021C905.4,625.409,906.137,626.458,910.23,626.458ZM908.886,603.2H905.4v10.733h3.484c3.422,0,5.01-2.406,5.01-5.3C913.9,605.672,912.308,603.2,908.886,603.2Z"/>
      <path id="Path_9" data-name="Path 9" d="M960.641,621.893l-.3,1.111c-.55,2.035-1.222,2.775-5.562,2.775h-.855c-3.178,0-3.727-.74-3.727-5.12v-2.837c4.766,0,5.132.431,5.132,3.638h1.163v-9.19h-1.163c0,3.208-.366,3.638-5.132,3.638V609h3.359c4.339,0,5.011.74,5.562,2.775l.306,1.171h.977l-.427-5.8H942v1.171c3.422,0,3.972.74,3.972,5.12v7.9c0,4.006-.468,5.015-3.165,5.158-2.564-.4-4.325-1.806-6.733-4.48l-2.81-3.083c3.789-.68,5.805-3.084,5.805-5.8,0-3.391-2.873-5.981-8.25-5.981H920.069v1.171c3.422,0,3.97.74,3.97,5.12v7.9c0,4.378-.549,5.181-3.97,5.181v1.171h12.16v-1.171c-3.422,0-3.97-.8-3.97-5.181v-2.22h1.037l6.784,8.572h25.113l.366-5.8ZM928.258,617.2V609h2.5c2.75,0,3.972,1.911,3.972,4.131a3.748,3.748,0,0,1-3.972,4.071Z"/>
      <path id="Path_10" data-name="Path 10" d="M973.046,628.493a8.984,8.984,0,0,1-5.5-2.1,4.428,4.428,0,0,0-.977,2.1h-1.163v-8.512h1.222c.489,4.071,3.3,6.477,6.906,6.477,1.954,0,3.544-1.111,3.544-2.961,0-1.6-1.407-2.837-3.911-4.009l-3.483-1.665c-2.445-1.172-4.278-3.208-4.278-5.921,0-2.961,2.75-5.489,6.539-5.489a7.607,7.607,0,0,1,4.766,1.6,3.5,3.5,0,0,0,.8-1.666h1.161v7.278h-1.283c-.43-2.9-2.016-5.3-5.255-5.3-1.712,0-3.3.988-3.3,2.529,0,1.6,1.283,2.468,4.216,3.824l3.361,1.665c2.934,1.418,4.094,3.7,4.094,5.552C980.5,625.779,977.14,628.493,973.046,628.493Z"/>
      <path id="Path_11" data-name="Path 11" d="M991.867,628.493a8.985,8.985,0,0,1-5.5-2.1,4.454,4.454,0,0,0-.977,2.1h-1.16v-8.512h1.221c.489,4.071,3.3,6.477,6.9,6.477,1.957,0,3.545-1.111,3.545-2.961,0-1.6-1.405-2.837-3.911-4.009l-3.483-1.665c-2.445-1.172-4.277-3.208-4.277-5.921,0-2.961,2.75-5.489,6.539-5.489a7.607,7.607,0,0,1,4.766,1.6,3.526,3.526,0,0,0,.794-1.666h1.16v7.278H996.2c-.427-2.9-2.016-5.3-5.254-5.3-1.711,0-3.3.988-3.3,2.529,0,1.6,1.283,2.468,4.217,3.824l3.361,1.665c2.933,1.418,4.094,3.7,4.094,5.552C999.321,625.779,995.96,628.493,991.867,628.493Z"/>
    </g>
  </g>
</svg>
